<svg xmlns="http://www.w3.org/2000/svg" width="805" height="600"><rect width="805" height="600" x="0" y="0" fill="#FFFFFF" id="backgorund"/><g id="viz"><clipPath id="serieClipPath"><rect x="-48" y="-20" width="805" height="600"/></clipPath><g transform="translate(0,0)"><g transform="translate(48,20)" clip-path="url(#serieClipPath)"><g id="axis"><g transform="translate(0,540)" fill="none" font-size="10" font-family="sans-serif" text-anchor="middle"><path class="domain" stroke="currentColor" d="M0,6V0H742V6"/><g class="tick" opacity="1" transform="translate(0,0)"><line stroke="currentColor" y2="6"/><text fill="currentColor" y="9" dy="0.71em">Fri 11</text></g><g class="tick" opacity="1" transform="translate(42.4,0)"><line stroke="currentColor" y2="6"/><text fill="currentColor" y="9" dy="0.71em">Mar 13</text></g><g class="tick" opacity="1" transform="translate(84.8,0)"><line stroke="currentColor" y2="6"/><text fill="currentColor" y="9" dy="0.71em">Tue 15</text></g><g class="tick" opacity="1" transform="translate(127.2,0)"><line stroke="currentColor" y2="6"/><text fill="currentColor" y="9" dy="0.71em">Thu 17</text></g><g class="tick" opacity="1" transform="translate(169.6,0)"><line stroke="currentColor" y2="6"/><text fill="currentColor" y="9" dy="0.71em">Sat 19</text></g><g class="tick" opacity="1" transform="translate(212,0)"><line stroke="currentColor" y2="6"/><text fill="currentColor" y="9" dy="0.71em">Mon 21</text></g><g class="tick" opacity="1" transform="translate(254.4,0)"><line stroke="currentColor" y2="6"/><text fill="currentColor" y="9" dy="0.71em">Wed 23</text></g><g class="tick" opacity="1" transform="translate(296.8,0)"><line stroke="currentColor" y2="6"/><text fill="currentColor" y="9" dy="0.71em">Fri 25</text></g><g class="tick" opacity="1" transform="translate(339.2,0)"><line stroke="currentColor" y2="6"/><text fill="currentColor" y="9" dy="0.71em">Mar 27</text></g><g class="tick" opacity="1" transform="translate(381.59999999999997,0)"><line stroke="currentColor" y2="6"/><text fill="currentColor" y="9" dy="0.71em">Tue 29</text></g><g class="tick" opacity="1" transform="translate(424,0)"><line stroke="currentColor" y2="6"/><text fill="currentColor" y="9" dy="0.71em">Thu 31</text></g><g class="tick" opacity="1" transform="translate(445.2,0)"><line stroke="currentColor" y2="6"/><text fill="currentColor" y="9" dy="0.71em">April</text></g><g class="tick" opacity="1" transform="translate(487.6,0)"><line stroke="currentColor" y2="6"/><text fill="currentColor" y="9" dy="0.71em">Apr 03</text></g><g class="tick" opacity="1" transform="translate(530,0)"><line stroke="currentColor" y2="6"/><text fill="currentColor" y="9" dy="0.71em">Tue 05</text></g><g class="tick" opacity="1" transform="translate(572.4,0)"><line stroke="currentColor" y2="6"/><text fill="currentColor" y="9" dy="0.71em">Thu 07</text></g><g class="tick" opacity="1" transform="translate(614.8000000000001,0)"><line stroke="currentColor" y2="6"/><text fill="currentColor" y="9" dy="0.71em">Sat 09</text></g><g class="tick" opacity="1" transform="translate(657.1999999999999,0)"><line stroke="currentColor" y2="6"/><text fill="currentColor" y="9" dy="0.71em">Mon 11</text></g><g class="tick" opacity="1" transform="translate(699.6,0)"><line stroke="currentColor" y2="6"/><text fill="currentColor" y="9" dy="0.71em">Wed 13</text></g><g class="tick" opacity="1" transform="translate(742,0)"><line stroke="currentColor" y2="6"/><text fill="currentColor" y="9" dy="0.71em">Fri 15</text></g><text x="742" dy="-5" text-anchor="end" style="font-family: Arial, sans-serif; font-size: 12px; fill: rgb(123, 123, 123); font-weight: bold;">日期</text></g><g transform="translate(0,0)" fill="none" font-size="10" font-family="sans-serif" text-anchor="end"><path class="domain" stroke="currentColor" d="M0,540V0"/><g class="tick" opacity="1" transform="translate(0,540)"><line stroke="currentColor" x2="-6"/><text fill="currentColor" x="-9" dy="0.32em">555</text></g><g class="tick" opacity="1" transform="translate(0,480)"><line stroke="currentColor" x2="-6"/><text fill="currentColor" x="-9" dy="0.32em">560</text></g><g class="tick" opacity="1" transform="translate(0,420)"><line stroke="currentColor" x2="-6"/><text fill="currentColor" x="-9" dy="0.32em">565</text></g><g class="tick" opacity="1" transform="translate(0,360.00000000000006)"><line stroke="currentColor" x2="-6"/><text fill="currentColor" x="-9" dy="0.32em">570</text></g><g class="tick" opacity="1" transform="translate(0,300)"><line stroke="currentColor" x2="-6"/><text fill="currentColor" x="-9" dy="0.32em">575</text></g><g class="tick" opacity="1" transform="translate(0,240)"><line stroke="currentColor" x2="-6"/><text fill="currentColor" x="-9" dy="0.32em">580</text></g><g class="tick" opacity="1" transform="translate(0,180.00000000000003)"><line stroke="currentColor" x2="-6"/><text fill="currentColor" x="-9" dy="0.32em">585</text></g><g class="tick" opacity="1" transform="translate(0,120)"><line stroke="currentColor" x2="-6"/><text fill="currentColor" x="-9" dy="0.32em">590</text></g><g class="tick" opacity="1" transform="translate(0,60.00000000000003)"><line stroke="currentColor" x2="-6"/><text fill="currentColor" x="-9" dy="0.32em">595</text></g><g class="tick" opacity="1" transform="translate(0,0)"><line stroke="currentColor" x2="-6"/><text fill="currentColor" x="-9" dy="0.32em">600</text></g><text x="4" text-anchor="start" dominant-baseline="hanging" style="font-family: Arial, sans-serif; font-size: 12px; fill: rgb(123, 123, 123); font-weight: bold;">收盤</text></g></g><g id="viz"><g><path d="M0,300C31.8,300,31.8,336,63.6,336C74.2,336,74.2,504,84.8,504C95.4,504,95.4,504,106,504C116.6,504,116.6,216,127.2,216C137.8,216,137.8,228.00000000000003,148.4,228.00000000000003C180.2,228.00000000000003,180.2,168,212,168C222.6,168,222.6,204,233.2,204C243.8,204,243.8,120,254.4,120C265,120,265,107.99999999999997,275.6,107.99999999999997C286.20000000000005,107.99999999999997,286.20000000000005,23.999999999999975,296.8,23.999999999999975C328.6,23.999999999999975,328.6,191.99999999999997,360.4,191.99999999999997C371,191.99999999999997,371,132,381.59999999999997,132C392.19999999999993,132,392.19999999999993,0,402.79999999999995,0C413.4,0,413.4,35.99999999999999,424,35.99999999999999C434.6,35.99999999999999,434.6,132,445.2,132C498.20000000000005,132,498.20000000000005,264,551.2,264C561.8,264,561.8,408,572.4,408C583,408,583,396.00000000000006,593.6,396.00000000000006C625.4,396.00000000000006,625.4,504,657.1999999999999,504C667.8,504,667.8,516,678.4,516C689,516,689,324,699.6,324C710.2,324,710.2,324,720.8,324C731.4,324,731.4,456,742,456" stroke="#1f77b4" fill="none"/><text font-family="sans-serif" font-size="10" class="labels" x="402.79999999999995" y="0" dx="0" dy="-4" text-anchor="middle"/></g></g></g><text y="4" x="4" style="font-family: Arial, sans-serif; font-size: 12px; fill: black; font-weight: bold; dominant-baseline: hanging;"/></g><g id="grid"><rect x="0" y="0" width="805" height="600" fill="none" stroke="#ccc"/></g></g></svg>